<svg xmlns="http://www.w3.org/2000/svg" width="20" height="20" viewBox="0 0 20 20" fill="none">
  <path fill-rule="evenodd" clip-rule="evenodd" d="M7.32593 2.2945C7.42639 1.69177 7.94787 1.25 8.55892 1.25H11.4411C12.0522 1.25 12.5736 1.69177 12.6741 2.2945L12.7983 3.03942C13.4598 3.30563 14.0747 3.66343 14.6272 4.09712L15.3362 3.8315C15.9084 3.61713 16.5517 3.84786 16.8573 4.37705L18.2984 6.87309C18.6039 7.40228 18.482 8.07478 18.0103 8.46315L17.4262 8.94395C17.4749 9.28898 17.5 9.64155 17.5 10C17.5 10.3585 17.4749 10.7111 17.4262 11.0561L18.0102 11.5369C18.482 11.9253 18.6038 12.5978 18.2983 13.127L16.8572 15.623C16.5517 16.1522 15.9084 16.3829 15.3362 16.1686L14.6271 15.9029C14.0747 16.3366 13.4598 16.6944 12.7983 16.9606L12.6741 17.7055C12.5736 18.3082 12.0522 18.75 11.4411 18.75H8.55892C7.94787 18.75 7.42639 18.3082 7.32593 17.7055L7.20178 16.9606C6.54024 16.6944 5.92541 16.3366 5.37296 15.903L4.66387 16.1686C4.09166 16.383 3.44833 16.1523 3.14281 15.6231L1.70172 13.127C1.39619 12.5978 1.51803 11.9253 1.98978 11.537L2.5738 11.0562C2.52517 10.7111 2.50001 10.3585 2.50001 10C2.50001 9.64151 2.52517 9.28888 2.5738 8.94381L1.98982 8.46306C1.51807 8.07469 1.39623 7.40219 1.70176 6.873L3.14285 4.37696C3.44837 3.84778 4.0917 3.61704 4.66391 3.83141L5.37294 4.09703C5.92539 3.66338 6.54024 3.30561 7.20178 3.03942L7.32593 2.2945ZM13.75 10C13.75 12.0711 12.0711 13.75 10 13.75C7.92895 13.75 6.25001 12.0711 6.25001 10C6.25001 7.92893 7.92895 6.25 10 6.25C12.0711 6.25 13.75 7.92893 13.75 10Z" fill="#687684"/>
</svg>
