<svg xmlns="http://www.w3.org/2000/svg" width="20" height="20" viewBox="0 0 20 20" fill="none">
  <path d="M10 1.66663C10.442 1.66663 10.866 1.84222 11.1785 2.15478C11.4911 2.46734 11.6667 2.89127 11.6667 3.33329C11.6667 3.77532 11.4911 4.19924 11.1785 4.5118C10.866 4.82436 10.442 4.99996 10 4.99996C9.55797 4.99996 9.13405 4.82436 8.82149 4.5118C8.50893 4.19924 8.33333 3.77532 8.33333 3.33329C8.33333 2.89127 8.50893 2.46734 8.82149 2.15478C9.13405 1.84222 9.55797 1.66663 10 1.66663ZM8.75 18.3333V13.3333H6.25L8.40833 7.00829C8.61667 6.32496 9.25 5.83329 10 5.83329C10.75 5.83329 11.3833 6.32496 11.5917 7.00829L13.75 13.3333H11.25V18.3333H8.75Z" fill="#1F1E1D"/>
</svg>
