<svg xmlns="http://www.w3.org/2000/svg"  viewBox="0 0 20 20" >
  <path d="M10 1.25C10.1658 1.25 10.3247 1.31585 10.4419 1.43306C10.5592 1.55027 10.625 1.70924 10.625 1.875V5.625C10.625 5.79076 10.5592 5.94973 10.4419 6.06694C10.3247 6.18415 10.1658 6.25 10 6.25C9.83424 6.25 9.67527 6.18415 9.55806 6.06694C9.44085 5.94973 9.375 5.79076 9.375 5.625V1.875C9.375 1.70924 9.44085 1.55027 9.55806 1.43306C9.67527 1.31585 9.83424 1.25 10 1.25ZM10 13.75C10.1658 13.75 10.3247 13.8158 10.4419 13.9331C10.5592 14.0503 10.625 14.2092 10.625 14.375V18.125C10.625 18.2908 10.5592 18.4497 10.4419 18.5669C10.3247 18.6842 10.1658 18.75 10 18.75C9.83424 18.75 9.67527 18.6842 9.55806 18.5669C9.44085 18.4497 9.375 18.2908 9.375 18.125V14.375C9.375 14.2092 9.44085 14.0503 9.55806 13.9331C9.67527 13.8158 9.83424 13.75 10 13.75ZM18.75 10C18.75 10.1658 18.6842 10.3247 18.5669 10.4419C18.4497 10.5592 18.2908 10.625 18.125 10.625H14.375C14.2092 10.625 14.0503 10.5592 13.9331 10.4419C13.8158 10.3247 13.75 10.1658 13.75 10C13.75 9.83424 13.8158 9.67527 13.9331 9.55806C14.0503 9.44085 14.2092 9.375 14.375 9.375H18.125C18.2908 9.375 18.4497 9.44085 18.5669 9.55806C18.6842 9.67527 18.75 9.83424 18.75 10ZM6.25 10C6.25 10.1658 6.18415 10.3247 6.06694 10.4419C5.94973 10.5592 5.79076 10.625 5.625 10.625H1.875C1.70924 10.625 1.55027 10.5592 1.43306 10.4419C1.31585 10.3247 1.25 10.1658 1.25 10C1.25 9.83424 1.31585 9.67527 1.43306 9.55806C1.55027 9.44085 1.70924 9.375 1.875 9.375H5.625C5.79076 9.375 5.94973 9.44085 6.06694 9.55806C6.18415 9.67527 6.25 9.83424 6.25 10ZM3.8125 3.8125C3.9297 3.69533 4.08865 3.62951 4.25437 3.62951C4.4201 3.62951 4.57905 3.69533 4.69625 3.8125L7.35 6.465C7.46385 6.58288 7.52685 6.74075 7.52542 6.90463C7.524 7.0685 7.45827 7.22526 7.34239 7.34114C7.22651 7.45702 7.06975 7.52275 6.90588 7.52417C6.742 7.5256 6.58413 7.4626 6.46625 7.34875L3.8125 4.69625C3.69533 4.57905 3.62951 4.4201 3.62951 4.25437C3.62951 4.08865 3.69533 3.9297 3.8125 3.8125ZM12.6513 12.6513C12.7685 12.5341 12.9274 12.4683 13.0931 12.4683C13.2589 12.4683 13.4178 12.5341 13.535 12.6513L16.1875 15.3038C16.3013 15.4216 16.3643 15.5795 16.3629 15.7434C16.3615 15.9072 16.2958 16.064 16.1799 16.1799C16.064 16.2958 15.9072 16.3615 15.7434 16.3629C15.5795 16.3643 15.4216 16.3013 15.3038 16.1875L12.6513 13.535C12.5341 13.4178 12.4683 13.2589 12.4683 13.0931C12.4683 12.9274 12.5341 12.7685 12.6513 12.6513ZM16.1875 3.81375C16.3043 3.9309 16.3699 4.08958 16.3699 4.255C16.3699 4.42042 16.3043 4.5791 16.1875 4.69625L13.535 7.35C13.4171 7.46385 13.2592 7.52685 13.0954 7.52542C12.9315 7.524 12.7747 7.45827 12.6589 7.34239C12.543 7.22651 12.4773 7.06975 12.4758 6.90588C12.4744 6.742 12.5374 6.58413 12.6513 6.46625L15.3038 3.81375C15.421 3.69658 15.5799 3.63076 15.7456 3.63076C15.9114 3.63076 16.0703 3.69658 16.1875 3.81375ZM7.34875 12.6513C7.46592 12.7685 7.53174 12.9274 7.53174 13.0931C7.53174 13.2589 7.46592 13.4178 7.34875 13.535L4.69625 16.1875C4.57837 16.3013 4.4205 16.3643 4.25662 16.3629C4.09275 16.3615 3.93599 16.2958 3.82011 16.1799C3.70423 16.064 3.6385 15.9072 3.63708 15.7434C3.63565 15.5795 3.69865 15.4216 3.8125 15.3038L6.465 12.6513C6.5822 12.5341 6.74115 12.4683 6.90687 12.4683C7.0726 12.4683 7.23155 12.5341 7.34875 12.6513Z" fill="currentColor"/>
</svg>
