<svg xmlns="http://www.w3.org/2000/svg" viewBox="0 0 20 20" >
  <path d="M10 3.33337C7.69671 3.33337 5.83337 5.19671 5.83337 7.50004C5.83337 7.6658 5.89922 7.82477 6.01643 7.94198C6.13364 8.05919 6.29261 8.12504 6.45837 8.12504C6.62413 8.12504 6.78311 8.05919 6.90032 7.94198C7.01753 7.82477 7.08337 7.6658 7.08337 7.50004C7.08337 5.88671 8.38671 4.58337 10 4.58337C11.6134 4.58337 12.9167 5.88671 12.9167 7.50004C12.9167 8.21004 12.7317 8.68337 12.4759 9.05004C12.2059 9.43587 11.8367 9.73587 11.3909 10.0767L11.2759 10.1642C10.4342 10.8042 9.37504 11.6092 9.37504 13.3334V13.5417C9.37504 13.7075 9.44089 13.8664 9.5581 13.9837C9.67531 14.1009 9.83428 14.1667 10 14.1667C10.1658 14.1667 10.3248 14.1009 10.442 13.9837C10.5592 13.8664 10.625 13.7075 10.625 13.5417V13.3334C10.625 12.2359 11.22 11.7809 12.1125 11.0984L12.1509 11.0692C12.59 10.7334 13.1067 10.33 13.5009 9.76587C13.9092 9.18171 14.1667 8.45754 14.1667 7.50004C14.1667 5.19671 12.3034 3.33337 10 3.33337ZM10 17.5C10.2211 17.5 10.433 17.4122 10.5893 17.256C10.7456 17.0997 10.8334 16.8877 10.8334 16.6667C10.8334 16.4457 10.7456 16.2337 10.5893 16.0775C10.433 15.9212 10.2211 15.8334 10 15.8334C9.77903 15.8334 9.56707 15.9212 9.41079 16.0775C9.25451 16.2337 9.16671 16.4457 9.16671 16.6667C9.16671 16.8877 9.25451 17.0997 9.41079 17.256C9.56707 17.4122 9.77903 17.5 10 17.5Z" fill="currentColor"/>
</svg>
